<?xml version="1.0" standalone="no"?>
<!DOCTYPE svg PUBLIC "-//W3C//DTD SVG 20010904//EN"
 "http://www.w3.org/TR/2001/REC-SVG-20010904/DTD/svg10.dtd">
<svg version="1.0" xmlns="http://www.w3.org/2000/svg"
 width="120.000000pt" height="120.000000pt" viewBox="0 0 120.000000 120.000000"
 preserveAspectRatio="xMidYMid meet">
<metadata>
Created by potrace 1.11, written by Peter Selinger 2001-2013
</metadata>
<g transform="translate(0.000000,120.000000) scale(0.100000,-0.100000)"
fill="#000000" stroke="none">
<path d="M467 953 c-9 -14 -54 -96 -192 -348 -76 -137 -150 -274 -166 -302
l-30 -53 38 0 38 0 172 318 173 317 0 -155 0 -156 -70 1 -70 0 0 -32 0 -33 70
0 70 0 0 -130 0 -130 35 0 35 0 0 130 c0 109 2 130 15 130 13 0 15 -21 15
-130 l0 -130 35 0 35 0 0 130 0 130 105 0 104 0 64 -97 c35 -54 72 -113 82
-131 16 -27 25 -32 57 -32 21 0 38 3 38 6 0 3 -36 61 -80 130 -44 68 -80 128
-80 133 0 5 10 11 23 15 34 8 86 61 107 109 23 50 21 147 -2 192 -23 44 -67
85 -113 106 -34 16 -67 19 -207 19 l-168 0 -2 -192 c-2 -142 -6 -192 -15 -196
-10 -3 -13 40 -13 192 l0 196 -49 0 c-28 0 -52 -3 -54 -7z m479 -68 c73 -30
113 -137 80 -216 -17 -40 -68 -88 -94 -90 -52 -3 -239 -4 -249 -1 -10 3 -13
44 -13 162 l0 159 123 -1 c74 0 134 -6 153 -13z"/>
</g>
</svg>
